<?xml version="1.0" encoding="UTF-8"?>
<svg id="Layer_1" data-name="Layer 1" xmlns="http://www.w3.org/2000/svg" viewBox="0 0 289 289">
  <defs>
    <style>
      .cls-1, .cls-2, .cls-3, .cls-4, .cls-5, .cls-6, .cls-7, .cls-8, .cls-9, .cls-10 {
        stroke-miterlimit: 10;
      }

      .cls-1, .cls-3 {
        stroke: #ae7046;
      }

      .cls-1, .cls-10 {
        fill: none;
      }

      .cls-2 {
        fill: #d9b287;
      }

      .cls-2, .cls-4 {
        stroke: #c5956b;
      }

      .cls-3 {
        fill: #ae7046;
      }

      .cls-4, .cls-8 {
        fill: #d9b187;
      }

      .cls-5 {
        fill: #fff;
      }

      .cls-5, .cls-6, .cls-7 {
        stroke: #231f20;
      }

      .cls-6 {
        fill: #231f20;
      }

      .cls-7 {
        fill: #bab6ab;
      }

      .cls-8 {
        stroke: #c5946a;
      }

      .cls-9 {
        fill: #aa4e10;
        stroke: #aa4e10;
      }

      .cls-10 {
        stroke: #ac623d;
      }
    </style>
  </defs>
  <rect class="cls-7" x=".5" y=".5" width="288" height="288"/>
  <g>
    <g>
      <path class="cls-2" d="M123.5,169.8c.4,1.4.5,3,.5,4.4.2,3.5.3,7,0,10.5-.2,2-.8,4.2-2.3,5.3-1.1.8-2.7,1-3.7,2.1-.9,1.1-.6,3.2.3,4.3.4.5.6.5,1.2.8.5.3,1,.5,1.5.7,1.7.6,3.6.4,5.4,0,1.6-.3,3.3-.7,4.4-2,.5-.7.8-1.5,1-2.4.3-1.4.5-2.9.4-4.4,0-1.2-.3-2.3-.4-3.5-.4-3.4-.3-6.8-.6-10.1-.2-2-.5-4-.8-6-2.4-.1-4.8,0-6.9.1Z"/>
      <path class="cls-4" d="M145.7,174.8c-2.7,2.2-3.7,6.4-2.7,9.8,1,3.5,5,6.2,8.1,7.5-1.7-.6-5.2-1.3-7.2-1.6-2.4-.4-4.9.2-6.8,1.7-.4.3-.9,2.9-.6,3.6.8,1.9,2.2,2.5,4.1,3.2,1.8.7,3.8,1.1,5.6.4,4.4-1.6,11-5.7,15.5-7.2,1.3-.4.4-.7.9-3.6.3-1.4,3.3-2.7,3.9-5.5.3-1.4,1.2-5.8,1.2-7.3-.2-3.5-2.1-6.9-3.5-8.5s-2.9-2.5-4.1-3.2c-3.5-1.9-6.6-2.9-10-5.2-1.6-1.1-4.5-2.5-5.5-4.3-.5-.9-1.5-2.4-1.9-3.3-.5-1.5-.6-2.4-1.5-3.7-.5-.8-1.1-1.6-1.9-2.1-.7-.4-1.6-.5-2.5-.5-5.1,0-10,1.7-14.8,3.4-.5.2-.9.3-1.2.8-.7,1,.2,2.3.5,3.5.5,2-.9,3.9-1.6,5.9-1.2,3.3-.6,7.1.9,10.1,1.6,3.1,4.1,6.4,6.7,8.5,4.6,3.7,9.9,5.9,15.7,6.4"/>
      <path class="cls-2" d="M129.3,171.1c0,1.5,0,2.9.1,4.4,0,.8,0,1.7.1,2.5,0,.9.2,1.8.4,2.7.2,1.4.4,2.8.6,4.1.2,1.5.5,3.1.2,4.6-.3,1.6-1.1,3.1-2,4.3-.7.9-1.5,1.9-1.3,3.1,0,.3.1.6.3.9.6,1.3,2.3,1.6,3.6,1.9s2.3.2,3.5-.2c1-.4,1.8-.5,2.5-1.4,1-1.1,1.5-2.6,1.8-4.1.3-1.5.3-3.1.2-4.7-.1-3.3-.5-6.6-1.1-9.8-.1-.7-.3-1.5-.1-2.2"/>
      <path class="cls-8" d="M165.8,184.4c1.4-2.5,1.4-3.5,1.6-5.5,2.3-.6,4.6-1.2,6.9-1.9,3.2-.8,6.7-.5,9.8.1,2.3.5,3.1.8,5,2.4.7.6,1.6,2.3,2,3.1.4.8,1,2.3,1.2,3.1.4,2.1.9,3.4.4,5.4-.5,1.7-1.5,3.1-2.8,4.1-1.3,1-2.7,1.7-4.1,2.4-.9.4-1.7.8-2.7,1.1-.7.2-1.4.4-2.2.6-3.3.7-6.6,1.6-9.6,3.3-1.7,1-3.3,2.2-5.1,2.4-.2,0-.4,0-.5,0-.2,0-.4-.2-.5-.4-1-1.1-1.4-2.8-1.4-4.4,0-.4,0-.8.2-1.1.2-.3.7-1,.9-1.2.8-.6,1-.7,1.9-1.1.7-.3,1.4-.5,2.1-.7,1.8-.5,3.5-1,5.3-1.5,3.4-1,7.8-1.4,10.6-3.8.5-.4.8-1.6,1.1-2.2.8-1.5-.4-3.8-1.4-5-1.1-1.3-2.6-1.4-4.2-1.2-1.4.1-2.9,0-4.3.1-.9,0-2,.4-2.9.5-.7,0-1.4.3-2.1.5-.8.2-1.3.5-2.1.5-.9,0-1.7,0-2.6,0l-.2.4Z"/>
    </g>
    <g>
      <path class="cls-2" d="M100.6,125c-1.3-.7-3.8-4.2-4.8-5.3-7.5-9.2-6.8-19.7-3.5-30.7,0-.2.2-.5.5-.6.2,0,.5,0,.7,0,2.4.5,4.8,1.1,7.3,1.6,2,.4,4,.9,5.8,1.8,2.2,1.1,4.1,2.2,5.9,3.9,1.9,1.8,2.7,3.2,4.5,5,.9.9,2.3,2.5,2.6,3.8,6.2-3.7,15.1-2.1,21.9.4-.1-.5,0-1,.2-1.5,2.4-6.9,6.9-10.9,13.6-14.2,1.2-.6,5-2.5,5.9-1.7,1.6,1.5,5.5,5.8,6.5,9.7.5,1.9,1.7,4.7,1.5,7.3-.2,2.2,0,3.9-.3,6.2s-.6,2.6-.9,3.9c-.9,3.7-3.5,5-4.9,8.6,1.3,1.4,1.1,12.5.5,15-1,3.8-2,4.4-4.6,7.5s-8.2,5.9-12.3,7c-2.9.8-4.3,1.4-14.3,1.8-20.5.8-29.2-13.7-30.8-18.1-.9-2.4-1-5.3-1-6.2,0-1.1-.6-4.5.1-5.1Z"/>
      <path class="cls-3" d="M96.7,110.2c-2.8-6.1-1.2-8.9-.4-15.1,1.7.7,3.4,1.5,5,2.5,1.1.6,2.1,1.3,3.1,2,2.5,1.7,6.7,6.2,6.8,6.1.2.2-9.1,11.5-9.1,11.8.8,1.6-5.1-6.7-5.4-7.3Z"/>
      <path class="cls-3" d="M162.6,106.1c1.3-6.5-.8-8.8-2.8-14.7-1.4,1-2.8,2.1-4,3.3-.8.8-1.6,1.6-2.4,2.5-1.9,2.1-4.8,7.2-4.9,7.2-.1.2,10.7,9.6,10.8,9.8-.4,1.7,3.2-7.4,3.4-8Z"/>
      <ellipse class="cls-6" cx="118.2" cy="121.8" rx="6.2" ry="5.6"/>
      <ellipse class="cls-6" cx="139" cy="120.8" rx="6.2" ry="5.6"/>
      <ellipse class="cls-5" cx="140.2" cy="119.2" rx="3.2" ry="2.8"/>
      <ellipse class="cls-5" cx="119" cy="120.3" rx="3.2" ry="2.8"/>
      <path class="cls-1" d="M135.3,111.5c.6-.8,1.7-1.2,2.7-1.2,1,0,2,.6,2.5,1.5,0,0-.1-.1-.2-.2"/>
      <path class="cls-1" d="M115.8,112.2c.6-.8,1.7-1.2,2.7-1.2s2,.6,2.5,1.5c0,0-.1-.1-.2-.2"/>
      <path class="cls-9" d="M126,132.8c2.1-1.2,7.8,0,7.8,0l-3.8,3.3-4-3.4Z"/>
      <path class="cls-10" d="M120.3,139.7c0,.2.6,1,.8,1.1,1.4,1,3.1,1.4,4.8,1.1,1.6-.3,3.2-1.3,4.1-2.8.4.7,1,1.1,1.7,1.4.4.2.7.4,1.1.6.3.2.6.3,1,.4.5.1.9.1,1.4,0,1.9-.3,3.5-1.2,5.1-2.4"/>
    </g>
  </g>
  <path class="cls-5" d="M144.2,138.2c21.4-11.3,24.1-11.9,24.1-11.9"/>
  <path class="cls-5" d="M95.3,133.3c19.6,3.8,21.5,4.9,21.5,4.9"/>
  <path class="cls-5" d="M143.1,138.5c20.4-6.1,22.8-6.2,22.8-6.2"/>
  <path class="cls-5" d="M144.4,138c17.8-.1,19.6.5,19.6.5"/>
  <path class="cls-5" d="M104.9,145.1c11.4-6.1,12.7-6.2,12.7-6.2"/>
  <path class="cls-5" d="M100.7,140.2c15.8-1.6,17.7-2,17.7-2"/>
</svg>