<?xml version="1.0" encoding="UTF-8"?>
<svg id="Layer_1" data-name="Layer 1" xmlns="http://www.w3.org/2000/svg" viewBox="0 0 289 289">
  <defs>
    <style>
      .cls-1 {
        stroke-width: 4px;
      }

      .cls-1, .cls-2, .cls-3, .cls-4, .cls-5, .cls-6, .cls-7, .cls-8 {
        stroke-miterlimit: 10;
      }

      .cls-1, .cls-3, .cls-4, .cls-5, .cls-6, .cls-7, .cls-8 {
        stroke: #231f20;
      }

      .cls-1, .cls-6 {
        fill: none;
      }

      .cls-2 {
        stroke: #fff;
      }

      .cls-2, .cls-3 {
        fill: #fff;
      }

      .cls-4 {
        fill: #231f20;
      }

      .cls-5 {
        fill: #ecebce;
      }

      .cls-7 {
        fill: #ae857b;
      }

      .cls-8 {
        fill: #865445;
      }
    </style>
  </defs>
  <rect class="cls-5" x=".5" y=".5" width="288" height="288"/>
  <g>
    <g>
      <path class="cls-8" d="M122.1,193.9c-.2.3-.1.8,0,1.2,1.3,6,2.2,12.6.2,18.3-.2.6-.5,1.3-1,1.7-.4.3-.8.7-1.3,1.1-1.3.9-1.7.5-3.2.8-1.8.3-4.3-.3-5.9-1.3-.9-.5-2.1-3.6-2.1-4.1,0-.9-.3-2.8-.1-3.7.9-4,1.9-7.9,2.4-12,.1-1.2.5-2.4.5-3.6,0-4.4.3-4.6.1-6.1,0-.7-.6-7.2-.7-8s-.1-3,0-4.7c0-1.4.2-3.2.3-4.6,0-1.9.4-5,1.7-6.2,1-.9,2.4-1,3.7-1.2.1.3.3.6.4.9-.5-5.4-.7-10.2-.7-15,0-4,0-8.1.6-12,.7-4.4,2.1-8.7,4.1-12.5,1.3-2.4,2.8-4.6,4.7-6.3,3-2.6,6.7-3.8,10.4-4,3.7-.2,7.3.4,11,1,1.4.2,2.8.5,4.1,1.2,1.1.6,2,1.6,2.8,2.7,3,4.1,4.2,9.7,5.3,15,.3,1.4,1.1,5.7,1.1,13.5,0,2,.3,3.9.3,5.9,0,2.9,0,5.9,0,8.8,0,.4-.3.8-.5.5,0,0,4.1,2.5,4.4,5.7.2,3,.9,10.8.8,12-.4,4.1-.3,8.2-.1,12.3.1,3.2.5,6.1,1.2,9.1.7,3.1,2,6.8,2.5,10,.5,3-2.9,5.3-5,6.1s-3,1.1-4.6.9c-2.4-.4-4.4-2.7-5.4-5.3-1-2.7-1.1-5.7-1-8.7.1-2.8,2.3-8.4,2-8.1-.3.7-2,7.9-2,8.2,0,.4.2,3.7.4,5.3s.1,2.6.3,3c.6,2-.3,4.2-1.7,5.5-1.4,1.3-3.1,1.8-4.8,2.4-.8.2-1.6.5-2.4.4-.8-.1-4.2-1.3-4.5-1.3,0,0-2.6-2.1-2.8-6.8,0-1.9-.1-3.4.1-5.2.3-1.8,0-4.1.1-5.9,0-1.8,0-6.1-.4-13.2.5.1.2,9.4.2,16,0,2.4-.2,6.4-.5,8.8-.3,2.4-.7,4.1-2.4,5.4-.6.4-2,1.1-2.7,1.4-1.3.6-2.9.5-4.2.5-2.4,0-3.1-.8-4.4-2-1.9-1.6-1-4.4-.4-6.3"/>
      <ellipse class="cls-4" cx="160.8" cy="212.6" rx=".7" ry="2"/>
      <ellipse class="cls-4" cx="166.1" cy="210.2" rx=".7" ry="2"/>
      <ellipse class="cls-4" cx="111" cy="211.3" rx=".7" ry="2"/>
      <ellipse class="cls-4" cx="163.6" cy="211.5" rx=".7" ry="2"/>
      <ellipse class="cls-4" cx="150.5" cy="214.3" rx=".7" ry="2"/>
      <ellipse class="cls-4" cx="143.7" cy="215.4" rx=".7" ry="2"/>
      <ellipse class="cls-4" cx="140.6" cy="215.4" rx=".7" ry="2"/>
      <ellipse class="cls-4" cx="125.2" cy="215.4" rx=".7" ry="2"/>
      <ellipse class="cls-4" cx="128.8" cy="216.3" rx=".7" ry="2"/>
      <ellipse class="cls-4" cx="131.6" cy="215.4" rx=".7" ry="2"/>
      <ellipse class="cls-4" cx="134.4" cy="213.3" rx=".7" ry="2"/>
      <ellipse class="cls-4" cx="113.7" cy="213.3" rx=".7" ry="2"/>
      <ellipse class="cls-4" cx="120" cy="211.3" rx=".7" ry="2"/>
      <ellipse class="cls-4" cx="117" cy="213.3" rx=".7" ry="2"/>
      <ellipse class="cls-4" cx="147.5" cy="215.4" rx=".7" ry="2"/>
      <ellipse class="cls-4" cx="157.4" cy="212.2" rx=".7" ry="2"/>
    </g>
    <path class="cls-8" d="M114.5,92.8c.5-2.7,1.7-5.3,2.9-7.7,3.1-5.9,7.7-11.3,13.5-12.5,1.5-.3,3.1-.5,4.6-.4,4.8.4,8.8-.4,13.1.8,11.6,3.3,10.3,10,10.6,11.5,2.3,12.7,4.1-.5,2.6,12-.3,2.3,0,4.8-.8,6.9-.4.9-1,1.8-1,2.8,0,.5,0,1,0,1.5,0,.9-.2,1.7-.5,2.5-.9,2.9-1.9,6-4,7.8-1.3,1.2-3,1.7-4.6,2.2-1.5.4-3,.7-4.5.8-.8,0-1.6.1-2.4.3-.9.2-1.8.6-2.7.9-3.1,1.2-6.5,1.8-9.7,1.2-3.5-.7-6.7-2.9-9.7-5-1.3-.9-2.7-1.9-3.6-3.4-.6-1-4.9-15.7-3.7-22.3Z"/>
    <path class="cls-4" d="M98.7,135.6c-1-8.6-1.8-17.2-1.5-25.8.2-8.6,1.6-17.3,4.8-25.1.9-2.1,1.9-4.2,3.1-6,4.5-6.8,11.9-10.7,19.2-10.2,1.5.1,2.9.4,4.2,1.3,2.2,1.6,3.2,5,2.9,8.1s-1.4,5.9-2.7,8.7c-3.2,6.9-6.8,13.4-10.8,19.6-2.2,3.4-4.6,6.8-6.6,10.4-3.9,7.2-6.3,15.4-9.1,23.3-.2.6-.5,1.2-.9,1.7-.4.4-1.1.6-1.5.2-.4-.4-.8-4.1-1.1-6.1Z"/>
    <path class="cls-4" d="M176.9,135.6c.9-8.6,1.7-17.2,1.5-25.8-.2-8.6-1.5-17.3-4.5-25.1-.8-2.1-1.8-4.2-3-6-4.2-6.8-11.2-10.7-18-10.2-1.4.1-2.8.4-3.9,1.3-2.1,1.6-3,5-2.7,8.1.2,3.1,1.4,5.9,2.5,8.7,3,6.9,6.4,13.4,10.2,19.6,2.1,3.4,4.3,6.8,6.2,10.4,3.7,7.2,5.9,15.4,8.6,23.3.2.6.4,1.2.8,1.7.4.4,1,.6,1.5.2.4-.4.8-4.1,1-6.1Z"/>
    <ellipse class="cls-3" cx="131.4" cy="93.6" rx="4.9" ry="8.3"/>
    <ellipse class="cls-3" cx="146.1" cy="93.7" rx="4.9" ry="8.4"/>
    <ellipse class="cls-1" cx="138.2" cy="127.2" rx="17.4" ry="9.2"/>
    <ellipse class="cls-4" cx="131.4" cy="95.4" rx="3.7" ry="4.6"/>
    <ellipse class="cls-4" cx="146.1" cy="96.1" rx="3.7" ry="5.3"/>
    <ellipse class="cls-7" cx="138.2" cy="117.9" rx="20.5" ry="14.5"/>
    <ellipse class="cls-2" cx="145.1" cy="92.3" rx="1" ry="1.4"/>
    <ellipse class="cls-2" cx="129.6" cy="92.3" rx="1" ry="1.4"/>
    <ellipse class="cls-4" cx="138.2" cy="111.6" rx="8.5" ry="5.3"/>
    <ellipse class="cls-2" cx="138.2" cy="110.2" rx="4.3" ry="1.4"/>
    <g>
      <path class="cls-6" d="M126.5,121.4c0,.4.4.7.7.9,2.6,1.8,5.3,3.5,8.4,3.6.9,0,1.5-.4,2.4-1.1.7.7,1.4,1.3,2.5,1.5.3,0,5.4-.5,8.3-3.1.4-.4.9-1,.8-1.6"/>
      <line class="cls-6" x1="138" y1="116.6" x2="138" y2="124.8"/>
    </g>
    <path class="cls-8" d="M163.2,176.5c-.2,3.9-.4,7.9-.6,11.8,1.5-2.1,3.7-4.1,5.2-6.1,4.2-5.8,7.8-11.7,10.9-18.4,1.6-3.5,2.8-7.1,4-10.8,9.4-30.3,3.9-47,3.6-47.1-.6,6.1.2,12.7-.4,18.8-.7,7.2-2.7,13.9-4.1,20.9-1.5,7-4.4,13.4-8.1,19.3-2.8,4.5-5.8,9.4-10,11.8-.1,0-.3.2-.4,0s.1-.4,0-.2Z"/>
  </g>
</svg>