<?xml version="1.0" encoding="UTF-8"?>
<svg id="Layer_1" data-name="Layer 1" xmlns="http://www.w3.org/2000/svg" viewBox="0 0 289 289">
  <defs>
    <style>
      .cls-1, .cls-2 {
        fill: #fff;
      }

      .cls-1, .cls-2, .cls-3, .cls-4, .cls-5, .cls-6, .cls-7 {
        stroke-miterlimit: 10;
      }

      .cls-1, .cls-3, .cls-5 {
        stroke: #5f1e07;
      }

      .cls-2 {
        stroke: #fff;
      }

      .cls-3, .cls-7 {
        fill: #dbc0b5;
      }

      .cls-4 {
        fill: #231f20;
      }

      .cls-4, .cls-6 {
        stroke: #231f20;
      }

      .cls-5 {
        fill: none;
      }

      .cls-6 {
        fill: #d9ccd9;
      }

      .cls-7 {
        stroke: #dbc0b5;
      }
    </style>
  </defs>
  <rect class="cls-6" x=".5" y=".5" width="288" height="288"/>
  <g>
    <path class="cls-3" d="M166.8,90.4c.9-2.4,3.1-4.1,5.3-5.2,2.8-1.5,6.1-2.4,9.2-2.1,3.2.3,6.3,1.9,8,4.7,2.1,3.3,1.8,7.7.6,11.5-1.1,3.5-3.2,7.1-6.7,8.2-2.1.6-4.3.3-6.3-.6-2-.9-3.7-2.3-5.3-3.7-.9-.7-1.7-1.5-2.2-2.5-.5-1-.7-2.2-.8-3.3-.3-2.7-.6-5.3-1.8-7Z"/>
    <path class="cls-3" d="M118.7,91.3c-.7-2.3-2.6-3.9-4.4-4.9-2.4-1.4-5-2.2-7.7-2-2.6.3-5.2,1.8-6.7,4.4-1.7,3.2-1.5,7.3-.5,10.9.9,3.3,2.7,6.8,5.6,7.8,1.7.6,3.6.3,5.2-.6,1.6-.8,3.1-2.1,4.4-3.5.7-.7,1.4-1.4,1.9-2.4.4-1,.6-2.1.7-3.1.3-2.5.5-5.1,1.5-6.6Z"/>
    <path class="cls-3" d="M89.7,129.2c-6.9,8.1-3.7,28,.9,38.9,2.6,6.2,6.2,11.9,10,17.5,1.6,2.5,4.3,5,6.8,6.4.6-2.1,1.2-3.2,3.5-3.2-2.3-.4-6.7,3.9.6,8.5,2.6,1.6,5.6,3,8.6,2.7,3-.3,6.8-.7,7.5-3.7.1.7.3,1.3.4,2,6.3,2.3,12.2,2,15.3,2,3.2,0,8.1,0,11.3-.9,3.1-1,6.4-.2,7.6-3.2-.2,1-.4,1.9-.6,2.9,5.1,1.5,11.5,1.7,15.6-1.8,1.7-1.4,3.2-2.9,3.5-4.6.4-1.7-1.4-3.9-3.2-3.8,1.2-.3,2.6,0,3.5.9.4.4.8.9,1.4,1,.6.1,1.2-.3,1.6-.7,4-3.3,7.9-7,10.1-11.8,5-10.8,5.9-15,8.2-26.6.3-1.5.9-17.2-.2-17.8-.5-.3,6.4,7.1-5.8-16.3-1.4-2.7-10.7-10.6-10.9-10.9-.5-.9-8.7-6.8-10.9-10.1s-3.6-4.6-5.2-5.1c-3.9-1.3-8.4-4.9-12.4-5.4-2.8-.4-18.8-1.6-25.9.3-5.1,1.3-11.2,3.4-14.6,7.3-3.4,3.9-8.9,6.8-7.9,11.9-6.7,2.3-12.3,7.2-16.3,13.1-4,5.9-5,8.1-6.9,15,1-1.7,4.3-4.5,4.3-4.5Z"/>
    <path class="cls-5" d="M170.4,92.6c4.3-4.2,9.4-1.2,9.4-1.2"/>
    <path class="cls-5" d="M106.9,94.7c4.3-4.2,9.4-1.2,9.4-1.2"/>
    <path class="cls-1" d="M94.3,118.1c4.9,4.6,12.2,6.5,18.7,5.1,3-.7,6.1-2.4,6.8-5.4,2.3,4.3,7.1,8.2,11.9,8.2s9.5-4.1,11.8-8.5c3.7,2.7,7.8,5.3,12.4,5.9,2,.3,4.8,0,6.7-.4,2.4-.6,4-2.7,6-4.2,1.1,2.5,3.8,3.8,6.4,4.7,3.5,1.1,7.2,1.8,10.8,1.2,3.6-.7,7-2.9,8.4-6.3,3.7,2.6,6.1,7,6.5,11.5-.2,2.3-.4,4.6-.7,6.9-.1,1.5-.3,2.9-.6,4.4-.7,2.8-2,5.4-3.4,7.9-2.6,4.6-5.3,9.1-8.3,13.4,3.3-.5,6.4-1.9,9-3.9-1.1,7.5-5.9,14-11.2,19.4-7.9,8.1-13,10.4-23.6,14.1-10.6,3.6-15.2,2.4-26.8,2-3.9-.2-16.7-2.2-20-4.3-4.6-2.9-9.6-6.2-11.5-11.4-1.4-4,0-7.8,1.1-11.9.3-1-.6-4.5-.7-5.6-.3-3-4-2.9-6.5-4.4-6.8-4.2-11.1-11-11.6-19,0-1.1-.2-4-.5-5.2-.1-.8-.3-1,1.9-6.8.7-1.9,2.4-3.2,3.6-4.8,1-1.3,2.8-2.9,3.3-2.4Z"/>
    <ellipse class="cls-4" cx="120.2" cy="119.4" rx="8.6" ry="8.4"/>
    <ellipse class="cls-4" cx="169.4" cy="119.4" rx="8.6" ry="8.4"/>
    <ellipse class="cls-2" cx="122.2" cy="117.5" rx="4.7" ry="4.4"/>
    <ellipse class="cls-2" cx="166.8" cy="117.5" rx="4.7" ry="4.4"/>
    <ellipse class="cls-7" cx="114.8" cy="136.5" rx="10.7" ry="5.5"/>
    <ellipse class="cls-7" cx="172.8" cy="137.2" rx="10.7" ry="5.5"/>
    <path class="cls-7" d="M143.5,132.9c-.4,0-.8.2-1.1,0-.4-.2-.7-.6-.6-1.1,0-.5.5-.9.9-1.2.9-.8,1.6-1.8,2.2-2.8.1.7.7,1.2,1.2,1.8.4.5.8,1,1,1.5.3.5.5,1.2,0,1.6-.2.1-.4.2-.6.3-.5.3-.6,1-.6,1.6,0,.7,0,1.4,0,2.1,0,.2,0,.5-.2.7,0,.1-.2.2-.3.2-.6.3-1.3-.2-1.6-.8s-.3-1.3-.2-2c0-.7.1-1.4,0-2,0,0,.1,0,.2.2Z"/>
    <path class="cls-5" d="M138.1,136.9c1.3.9,3.1,1.1,4.5.4,1.4-.7,2.5-3,1.8-3.5-1.3.6,2.4,3.5,3.2,3.9,1.1.5,2.6,0,3.2-1.1"/>
    <path class="cls-5" d="M169.7,149.6c-1.6-.6-3.5-.4-5.1.4-3,1.5-5.2,4.6-5.5,5.8-.6,1.8-.5,4.9.7,6.2.6.6,2.2,2.3,3.2,2.5,3.9.8,2.5,0,7.4-1.3,2.3-.5,3.1-1.2,4.3-3.2,0,.2.2.3.3.5"/>
    <path class="cls-5" d="M169.7,149.6c-1.6-.6-3.5-.4-5.1.4-3,1.5-5.2,4.6-5.5,5.8-.6,1.8-.5,4.9.7,6.2.6.6,2.2,2.3,3.2,2.5,3.9.8,2.5,0,7.4-1.3,2.3-.5,3.1-1.2,4.3-3.2,0,.2.2.3.3.5"/>
    <path class="cls-5" d="M118.7,162.3c-.2,1.7,1.7,2.9,3.4,3.5,2.9,1,6.1,1.5,9,.3,2.8-1.2,4.9-4.3,4-7.1-.3-1-1-1.9-1.7-2.8-.9-1.1-1.9-2.2-3.2-3-1.5-1-3.3-1.5-5.1-2-.7-.2-1.7-.4-2.1.2"/>
  </g>
</svg>