<?xml version="1.0" encoding="UTF-8"?>
<svg id="Layer_1" data-name="Layer 1" xmlns="http://www.w3.org/2000/svg" xmlns:xlink="http://www.w3.org/1999/xlink" viewBox="0 0 763.1 763.1">
  <defs>
    <style>
      .cls-1, .cls-2, .cls-3, .cls-4, .cls-5, .cls-6, .cls-7, .cls-8, .cls-9, .cls-10, .cls-11, .cls-12, .cls-13, .cls-14, .cls-15, .cls-16, .cls-17, .cls-18, .cls-19 {
        stroke-miterlimit: 10;
      }

      .cls-1, .cls-4 {
        stroke: #ae7046;
      }

      .cls-1, .cls-5, .cls-20, .cls-12, .cls-15, .cls-17 {
        fill: none;
      }

      .cls-2, .cls-7, .cls-10 {
        fill: #fff;
      }

      .cls-2, .cls-9, .cls-12, .cls-18 {
        stroke: #5f1e07;
      }

      .cls-3 {
        fill: #d9b287;
      }

      .cls-3, .cls-8 {
        stroke: #c5956b;
      }

      .cls-4 {
        fill: #ae7046;
      }

      .cls-5 {
        stroke-width: 4px;
      }

      .cls-5, .cls-6, .cls-10, .cls-11, .cls-14, .cls-15 {
        stroke: #231f20;
      }

      .cls-6 {
        fill: #a5857f;
      }

      .cls-7 {
        stroke: #fff;
      }

      .cls-8, .cls-13 {
        fill: #d9b187;
      }

      .cls-9, .cls-19 {
        fill: #dbc0b5;
      }

      .cls-11 {
        fill: #231f20;
      }

      .cls-13 {
        stroke: #c5946a;
      }

      .cls-14 {
        fill: #825c50;
      }

      .cls-16 {
        fill: #aa4e10;
        stroke: #aa4e10;
      }

      .cls-17 {
        stroke: #ac623d;
      }

      .cls-18 {
        fill: #fdc581;
      }

      .cls-19 {
        stroke: #dbc0b5;
      }

      .cls-21 {
        clip-path: url(#clippath);
      }

      .cls-22 {
        fill: #0084b6;
      }
    </style>
    <clipPath id="clippath">
      <rect class="cls-20" x="188.4" y="110.2" width="432" height="432"/>
    </clipPath>
  </defs>
  <g class="cls-21">
    <g>
      <g>
        <polygon class="cls-22" points="229.6 358.6 701.7 573.9 743.2 432 229.6 358.6"/>
        <polygon class="cls-18" points="229.6 340.4 621.8 680 701.7 555.6 229.6 340.4"/>
      </g>
      <g>
        <polygon class="cls-22" points="290.3 257.9 471.9 743.9 601.6 672.9 290.3 257.9"/>
        <polygon class="cls-18" points="303.2 245 340.4 762.5 484.8 731 303.2 245"/>
      </g>
      <g>
        <polygon class="cls-22" points="404.5 229.6 189.2 701.7 331.1 743.2 404.5 229.6"/>
        <polygon class="cls-18" points="422.7 229.6 83.1 621.8 207.5 701.7 422.7 229.6"/>
      </g>
      <g>
        <polygon class="cls-22" points="505.2 290.3 19.2 471.9 90.2 601.6 505.2 290.3"/>
        <polygon class="cls-18" points="518.1 303.2 .6 340.4 32.1 484.8 518.1 303.2"/>
      </g>
      <g>
        <polygon class="cls-22" points="533.5 404.5 61.4 189.2 19.9 331.1 533.5 404.5"/>
        <polygon class="cls-18" points="533.5 422.7 141.3 83.1 61.5 207.5 533.5 422.7"/>
      </g>
      <g>
        <polygon class="cls-22" points="472.8 505.2 291.2 19.2 161.5 90.2 472.8 505.2"/>
        <polygon class="cls-18" points="459.9 518.1 422.7 .6 278.3 32.1 459.9 518.1"/>
      </g>
      <g>
        <polygon class="cls-22" points="358.6 533.5 573.9 61.4 432 19.9 358.6 533.5"/>
        <polygon class="cls-18" points="340.4 533.5 680 141.3 555.6 61.5 340.4 533.5"/>
      </g>
      <g>
        <polygon class="cls-22" points="257.9 472.8 743.9 291.2 672.9 161.5 257.9 472.8"/>
        <polygon class="cls-18" points="245 459.9 762.5 422.7 731 278.3 245 459.9"/>
      </g>
    </g>
    <rect class="cls-18" x="188.4" y="320.2" width="432" height="222"/>
    <g>
      <g>
        <path class="cls-3" d="M284.4,438.2c.4,1.4.5,3,.5,4.4.2,3.5.3,7,0,10.5-.2,2-.8,4.2-2.3,5.3-1.1.8-2.7,1-3.7,2.1-.9,1.1-.6,3.2.3,4.3.4.5.6.5,1.2.8.5.3,1,.5,1.5.7,1.7.6,3.6.4,5.4,0,1.6-.3,3.3-.7,4.4-2,.5-.7.8-1.5,1-2.4.3-1.4.5-2.9.4-4.4,0-1.2-.3-2.3-.4-3.5-.4-3.4-.3-6.8-.6-10.1-.2-2-.5-4-.8-6-2.4-.1-4.8,0-6.9.1Z"/>
        <path class="cls-8" d="M306.6,443.2c-2.7,2.2-3.7,6.4-2.7,9.8,1,3.5,5,6.2,8.1,7.5-1.7-.6-5.2-1.3-7.2-1.6-2.4-.4-4.9.2-6.8,1.7-.4.3-.9,2.9-.6,3.6.8,1.9,2.2,2.5,4.1,3.2,1.8.7,3.8,1.1,5.6.4,4.4-1.6,11-5.7,15.5-7.2,1.3-.4.4-.7.9-3.6.3-1.4,3.3-2.7,3.9-5.5.3-1.4,1.2-5.8,1.2-7.3-.2-3.5-2.1-6.9-3.5-8.5s-2.9-2.5-4.1-3.2c-3.5-1.9-6.6-2.9-10-5.2-1.6-1.1-4.5-2.5-5.5-4.3-.5-.9-1.5-2.4-1.9-3.3-.5-1.5-.6-2.4-1.5-3.7-.5-.8-1.1-1.6-1.9-2.1-.7-.4-1.6-.5-2.5-.5-5.1,0-10,1.7-14.8,3.4-.5.2-.9.3-1.2.8-.7,1,.2,2.3.5,3.5.5,2-.9,3.9-1.6,5.9-1.2,3.3-.6,7.1.9,10.1,1.6,3.1,4.1,6.4,6.7,8.5,4.6,3.7,9.9,5.9,15.7,6.4"/>
        <path class="cls-3" d="M290.3,439.5c0,1.5,0,2.9.1,4.4,0,.8,0,1.7.1,2.5,0,.9.2,1.8.4,2.7.2,1.4.4,2.8.6,4.1.2,1.5.5,3.1.2,4.6-.3,1.6-1.1,3.1-2,4.3-.7.9-1.5,1.9-1.3,3.1,0,.3.1.6.3.9.6,1.3,2.3,1.6,3.6,1.9s2.3.2,3.5-.2c1-.4,1.8-.5,2.5-1.4,1-1.1,1.5-2.6,1.8-4.1.3-1.5.3-3.1.2-4.7-.1-3.3-.5-6.6-1.1-9.8-.1-.7-.3-1.5-.1-2.2"/>
        <path class="cls-13" d="M326.8,452.8c1.4-2.5,1.4-3.5,1.6-5.5,2.3-.6,4.6-1.2,6.9-1.9,3.2-.8,6.7-.5,9.8.1,2.3.5,3.1.8,5,2.4.7.6,1.6,2.3,2,3.1.4.8,1,2.3,1.2,3.1.4,2.1.9,3.4.4,5.4-.5,1.7-1.5,3.1-2.8,4.1-1.3,1-2.7,1.7-4.1,2.4-.9.4-1.7.8-2.7,1.1-.7.2-1.4.4-2.2.6-3.3.7-6.6,1.6-9.6,3.3-1.7,1-3.3,2.2-5.1,2.4-.2,0-.4,0-.5,0-.2,0-.4-.2-.5-.4-1-1.1-1.4-2.8-1.4-4.4,0-.4,0-.8.2-1.1.2-.3.7-1,.9-1.2.8-.6,1-.7,1.9-1.1.7-.3,1.4-.5,2.1-.7,1.8-.5,3.5-1,5.3-1.5,3.4-1,7.8-1.4,10.6-3.8.5-.4.8-1.6,1.1-2.2.8-1.5-.4-3.8-1.4-5-1.1-1.3-2.6-1.4-4.2-1.2-1.4.1-2.9,0-4.3.1-.9,0-2,.4-2.9.5-.7,0-1.4.3-2.1.5-.8.2-1.3.5-2.1.5-.9,0-1.7,0-2.6,0l-.2.4Z"/>
      </g>
      <g>
        <path class="cls-3" d="M261.5,393.4c-1.3-.7-3.8-4.2-4.8-5.3-7.5-9.2-6.8-19.7-3.5-30.7,0-.2.2-.5.5-.6.2,0,.5,0,.7,0,2.4.5,4.8,1.1,7.3,1.6,2,.4,4,.9,5.8,1.8,2.2,1.1,4.1,2.2,5.9,3.9,1.9,1.8,2.7,3.2,4.5,5,.9.9,2.3,2.5,2.6,3.8,6.2-3.7,15.1-2.1,21.9.4-.1-.5,0-1,.2-1.5,2.4-6.9,6.9-10.9,13.6-14.2,1.2-.6,5-2.5,5.9-1.7,1.6,1.5,5.5,5.8,6.5,9.7.5,1.9,1.7,4.7,1.5,7.3-.2,2.2,0,3.9-.3,6.2-.1,1.3-.6,2.6-.9,3.9-.9,3.7-3.5,5-4.9,8.6,1.3,1.4,1.1,12.5.5,15-1,3.8-2,4.4-4.6,7.5s-8.2,5.9-12.3,7c-2.9.8-4.3,1.4-14.3,1.8-20.5.8-29.2-13.7-30.8-18.1-.9-2.4-1-5.3-1-6.2,0-1.1-.6-4.5.1-5.1Z"/>
        <path class="cls-4" d="M257.7,378.7c-2.8-6.1-1.2-8.9-.4-15.1,1.7.7,3.4,1.5,5,2.5,1.1.6,2.1,1.3,3.1,2,2.5,1.7,6.7,6.2,6.8,6.1.2.2-9.1,11.5-9.1,11.8.8,1.6-5.1-6.7-5.4-7.3Z"/>
        <path class="cls-4" d="M323.5,374.5c1.3-6.5-.8-8.8-2.8-14.7-1.4,1-2.8,2.1-4,3.3-.8.8-1.6,1.6-2.4,2.5-1.9,2.1-4.8,7.2-4.9,7.2-.1.2,10.7,9.6,10.8,9.8-.4,1.7,3.2-7.4,3.4-8Z"/>
        <ellipse class="cls-11" cx="279.1" cy="390.2" rx="6.2" ry="5.6"/>
        <ellipse class="cls-11" cx="299.9" cy="389.2" rx="6.2" ry="5.6"/>
        <ellipse class="cls-10" cx="301.1" cy="387.6" rx="3.2" ry="2.8"/>
        <ellipse class="cls-10" cx="279.9" cy="388.7" rx="3.2" ry="2.8"/>
        <path class="cls-1" d="M296.2,379.9c.6-.8,1.7-1.2,2.7-1.2,1,0,2,.6,2.5,1.5,0,0-.1-.1-.2-.2"/>
        <path class="cls-1" d="M276.7,380.6c.6-.8,1.7-1.2,2.7-1.2s2,.6,2.5,1.5c0,0-.1-.1-.2-.2"/>
        <path class="cls-16" d="M286.9,401.2c2.1-1.2,7.8,0,7.8,0l-3.8,3.3-4-3.4Z"/>
        <path class="cls-17" d="M281.2,408.2c0,.2.6,1,.8,1.1,1.4,1,3.1,1.4,4.8,1.1,1.6-.3,3.2-1.3,4.1-2.8.4.7,1,1.1,1.7,1.4.4.2.7.4,1.1.6.3.2.6.3,1,.4.5.1.9.1,1.4,0,1.9-.3,3.5-1.2,5.1-2.4"/>
      </g>
    </g>
    <g>
      <g>
        <path class="cls-14" d="M392.9,375.8c-.2.3-.1.8,0,1.2,1.3,6,2.2,12.6.2,18.3-.2.6-.5,1.3-1,1.7-.4.3-.8.7-1.3,1.1-1.3.9-1.7.5-3.2.8-1.8.3-4.3-.3-5.9-1.3-.9-.5-2.1-3.6-2.1-4.1,0-.9-.3-2.8-.1-3.7.9-4,1.9-7.9,2.4-12,.1-1.2.5-2.4.5-3.6,0-4.4.3-4.6.1-6.1,0-.7-.6-7.2-.7-8s-.1-3,0-4.7c0-1.4.2-3.2.3-4.6,0-1.9.4-5,1.7-6.2,1-.9,2.4-1,3.7-1.2.1.3.3.6.4.9-.5-5.4-.7-10.2-.7-15,0-4,0-8.1.6-12,.7-4.4,2.1-8.7,4.1-12.5,1.3-2.4,2.8-4.6,4.7-6.3,3-2.6,6.7-3.8,10.4-4,3.7-.2,7.3.4,11,1,1.4.2,2.8.5,4.1,1.2,1.1.6,2,1.6,2.8,2.7,3,4.1,4.2,9.7,5.3,15,.3,1.4,1.1,5.7,1.1,13.5,0,2,.3,3.9.3,5.9,0,2.9,0,5.9,0,8.8,0,.4-.3.8-.5.5,0,0,4.1,2.5,4.4,5.7.2,3,.9,10.8.8,12-.4,4.1-.3,8.2-.1,12.3.1,3.2.5,6.1,1.2,9.1.7,3.1,2,6.8,2.5,10,.5,3-2.9,5.3-5,6.1s-3,1.1-4.6.9c-2.4-.4-4.4-2.7-5.4-5.3-1-2.7-1.1-5.7-1-8.7.1-2.8,2.3-8.4,2-8.1-.3.7-2,7.9-2,8.2,0,.4.2,3.7.4,5.3s.1,2.6.3,3c.6,2-.3,4.2-1.7,5.5-1.4,1.3-3.1,1.8-4.8,2.4-.8.2-1.6.5-2.4.4-.8-.1-4.2-1.3-4.5-1.3,0,0-2.6-2.1-2.8-6.8,0-1.9-.1-3.4.1-5.2.3-1.8,0-4.1.1-5.9,0-1.8,0-6.1-.4-13.2.5.1.2,9.4.2,16,0,2.4-.2,6.4-.5,8.8-.3,2.4-.7,4.1-2.4,5.4-.6.4-2,1.1-2.7,1.4-1.3.6-2.9.5-4.2.5-2.4,0-3.1-.8-4.4-2-1.9-1.6-1-4.4-.4-6.3"/>
        <ellipse class="cls-11" cx="431.7" cy="394.5" rx=".7" ry="2"/>
        <ellipse class="cls-11" cx="436.9" cy="392.1" rx=".7" ry="2"/>
        <ellipse class="cls-11" cx="381.9" cy="393.2" rx=".7" ry="2"/>
        <ellipse class="cls-11" cx="434.4" cy="393.4" rx=".7" ry="2"/>
        <ellipse class="cls-11" cx="421.4" cy="396.1" rx=".7" ry="2"/>
        <ellipse class="cls-11" cx="414.6" cy="397.2" rx=".7" ry="2"/>
        <ellipse class="cls-11" cx="411.5" cy="397.2" rx=".7" ry="2"/>
        <ellipse class="cls-11" cx="396" cy="397.2" rx=".7" ry="2"/>
        <ellipse class="cls-11" cx="399.7" cy="398.2" rx=".7" ry="2"/>
        <ellipse class="cls-11" cx="402.5" cy="397.2" rx=".7" ry="2"/>
        <ellipse class="cls-11" cx="405.3" cy="395.2" rx=".7" ry="2"/>
        <ellipse class="cls-11" cx="384.6" cy="395.2" rx=".7" ry="2"/>
        <ellipse class="cls-11" cx="390.9" cy="393.2" rx=".7" ry="2"/>
        <ellipse class="cls-11" cx="387.9" cy="395.2" rx=".7" ry="2"/>
        <ellipse class="cls-11" cx="418.4" cy="397.2" rx=".7" ry="2"/>
        <ellipse class="cls-11" cx="428.3" cy="394.1" rx=".7" ry="2"/>
      </g>
      <path class="cls-14" d="M385.3,274.6c.5-2.7,1.7-5.3,2.9-7.7,3.1-5.9,7.7-11.3,13.5-12.5,1.5-.3,3.1-.5,4.6-.4,4.8.4,8.8-.4,13.1.8,11.6,3.3,10.3,10,10.6,11.5,2.3,12.7,4.1-.5,2.6,12-.3,2.3,0,4.8-.8,6.9-.4.9-1,1.8-1,2.8,0,.5,0,1,0,1.5,0,.9-.2,1.7-.5,2.5-.9,2.9-1.9,6-4,7.8-1.3,1.2-3,1.7-4.6,2.2-1.5.4-3,.7-4.5.8-.8,0-1.6.1-2.4.3-.9.2-1.8.6-2.7.9-3.1,1.2-6.5,1.8-9.7,1.2-3.5-.7-6.7-2.9-9.7-5-1.3-.9-2.7-1.9-3.6-3.4-.6-1-4.9-15.7-3.7-22.3Z"/>
      <path class="cls-11" d="M369.5,317.4c-1-8.6-1.8-17.2-1.5-25.8.2-8.6,1.6-17.3,4.8-25.1.9-2.1,1.9-4.2,3.1-6,4.5-6.8,11.9-10.7,19.2-10.2,1.5.1,2.9.4,4.2,1.3,2.2,1.6,3.2,5,2.9,8.1s-1.4,5.9-2.7,8.7c-3.2,6.9-6.8,13.4-10.8,19.6-2.2,3.4-4.6,6.8-6.6,10.4-3.9,7.2-6.3,15.4-9.1,23.3-.2.6-.5,1.2-.9,1.7-.4.4-1.1.6-1.5.2-.4-.4-.8-4.1-1.1-6.1Z"/>
      <path class="cls-11" d="M447.8,317.4c.9-8.6,1.7-17.2,1.5-25.8-.2-8.6-1.5-17.3-4.5-25.1-.8-2.1-1.8-4.2-3-6-4.2-6.8-11.2-10.7-18-10.2-1.4.1-2.8.4-3.9,1.3-2.1,1.6-3,5-2.7,8.1.2,3.1,1.4,5.9,2.5,8.7,3,6.9,6.4,13.4,10.2,19.6,2.1,3.4,4.3,6.8,6.2,10.4,3.7,7.2,5.9,15.4,8.6,23.3.2.6.4,1.2.8,1.7.4.4,1,.6,1.5.2.4-.4.8-4.1,1-6.1Z"/>
      <ellipse class="cls-10" cx="402.2" cy="275.4" rx="4.9" ry="8.3"/>
      <ellipse class="cls-10" cx="417" cy="275.5" rx="4.9" ry="8.4"/>
      <ellipse class="cls-5" cx="409.1" cy="309.1" rx="17.4" ry="9.2"/>
      <ellipse class="cls-11" cx="402.2" cy="277.3" rx="3.7" ry="4.6"/>
      <ellipse class="cls-11" cx="417" cy="277.9" rx="3.7" ry="5.3"/>
      <ellipse class="cls-6" cx="409.1" cy="299.8" rx="20.5" ry="14.5"/>
      <ellipse class="cls-7" cx="416" cy="274.2" rx="1" ry="1.4"/>
      <ellipse class="cls-7" cx="400.5" cy="274.2" rx="1" ry="1.4"/>
      <ellipse class="cls-11" cx="409.1" cy="293.5" rx="8.5" ry="5.3"/>
      <ellipse class="cls-7" cx="409.1" cy="292.1" rx="4.3" ry="1.4"/>
      <g>
        <path class="cls-15" d="M397.4,303.3c0,.4.4.7.7.9,2.6,1.8,5.3,3.5,8.4,3.6.9,0,1.5-.4,2.4-1.1.7.7,1.4,1.3,2.5,1.5.3,0,5.4-.5,8.3-3.1.4-.4.9-1,.8-1.6"/>
        <line class="cls-15" x1="408.9" y1="298.5" x2="408.9" y2="306.7"/>
      </g>
      <path class="cls-14" d="M434,358.3c-.2,3.9-.4,7.9-.6,11.8,1.5-2.1,3.7-4.1,5.2-6.1,4.2-5.8,7.8-11.7,10.9-18.4,1.6-3.5,2.8-7.1,4-10.8,9.4-30.3,3.9-47,3.6-47.1-.6,6.1.2,12.7-.4,18.8-.7,7.2-2.7,13.9-4.1,20.9-1.5,7-4.4,13.4-8.1,19.3-2.8,4.5-5.8,9.4-10,11.8-.1,0-.3.2-.4,0s.1-.4,0-.2Z"/>
    </g>
    <g>
      <path class="cls-9" d="M535.6,376.9c.6-1.8,2.2-3,3.8-3.8,2-1.1,4.3-1.7,6.6-1.5s4.5,1.4,5.7,3.4c1.5,2.5,1.3,5.7.4,8.4-.8,2.6-2.3,5.2-4.7,6-1.5.5-3.1.2-4.5-.5-1.4-.7-2.6-1.7-3.8-2.7-.6-.5-1.2-1.1-1.6-1.9-.4-.7-.5-1.6-.6-2.4-.2-2-.5-3.9-1.3-5.1Z"/>
      <path class="cls-9" d="M501.4,377.6c-.5-1.7-1.8-2.8-3.2-3.6-1.7-1-3.6-1.6-5.4-1.4-1.9.2-3.7,1.3-4.7,3.2-1.2,2.3-1.1,5.4-.4,8,.6,2.5,1.9,5,3.9,5.7,1.2.4,2.6.2,3.7-.4,1.2-.6,2.2-1.6,3.2-2.6.5-.5,1-1.1,1.3-1.8.3-.7.4-1.5.5-2.3.2-1.9.4-3.7,1.1-4.9Z"/>
      <path class="cls-9" d="M480.8,405.3c-4.9,6-2.7,20.5.6,28.5,1.9,4.5,4.4,8.7,7.1,12.8,1.2,1.8,3,3.6,4.8,4.7.4-1.5.9-2.3,2.5-2.3-1.7-.3-4.8,2.9.4,6.2,1.8,1.2,3.9,2.2,6.1,2s4.8-.5,5.3-2.7c.1.5.2,1,.3,1.5,4.5,1.7,8.7,1.5,10.9,1.5,2.3,0,5.7,0,8-.7,2.2-.7,4.5-.1,5.4-2.4-.1.7-.3,1.4-.4,2.1,3.6,1.1,8.1,1.2,11-1.3,1.2-1,2.2-2.1,2.5-3.4.3-1.3-1-2.8-2.3-2.8.9-.2,1.8,0,2.5.6.3.3.6.6,1,.7.4,0,.8-.2,1.2-.5,2.8-2.4,5.6-5.2,7.2-8.6,3.6-7.9,4.2-11,5.8-19.5.2-1.1.6-12.6-.1-13.1-.3-.2,4.6,5.2-4.1-12-1-2-7.6-7.8-7.7-8-.4-.6-6.1-5-7.8-7.4s-2.6-3.3-3.7-3.7c-2.7-1-5.9-3.6-8.8-4s-13.3-1.1-18.4.2c-3.6,1-7.9,2.5-10.3,5.4-2.4,2.9-6.3,5-5.6,8.8-4.8,1.7-8.7,5.3-11.6,9.6-2.9,4.3-3.5,5.9-4.9,11,.7-1.2,3.1-3.3,3.1-3.3Z"/>
      <path class="cls-12" d="M538.1,378.6c3.1-3.1,6.7-.9,6.7-.9"/>
      <path class="cls-12" d="M493,380.1c3.1-3.1,6.7-.9,6.7-.9"/>
      <path class="cls-2" d="M484.1,397.3c3.5,3.4,8.6,4.8,13.3,3.7,2.1-.5,4.4-1.7,4.8-3.9,1.7,3.1,5,6,8.5,6s6.8-3,8.3-6.2c2.6,2,5.6,3.9,8.8,4.3,1.4.2,3.4,0,4.8-.3,1.7-.5,2.8-2,4.3-3.1.7,1.8,2.7,2.8,4.5,3.4,2.5.8,5.1,1.3,7.6.9,2.5-.5,5-2.1,6-4.6,2.6,1.9,4.4,5.1,4.6,8.4-.2,1.7-.3,3.4-.5,5-.1,1.1-.2,2.2-.4,3.2-.5,2.1-1.4,4-2.4,5.8-1.8,3.4-3.8,6.6-5.9,9.8,2.3-.4,4.6-1.4,6.4-2.9-.8,5.5-4.2,10.2-7.9,14.2-5.6,5.9-9.2,7.6-16.8,10.3-7.6,2.7-10.8,1.8-19,1.4-2.8-.1-11.9-1.6-14.2-3.1-3.3-2.1-6.8-4.6-8.2-8.4-1-2.9,0-5.7.8-8.7.2-.7-.4-3.3-.5-4.1-.2-2.2-2.9-2.1-4.6-3.2-4.8-3.1-7.9-8.1-8.2-13.9,0-.8-.2-3-.3-3.8-.1-.6-.2-.7,1.4-5,.5-1.4,1.7-2.3,2.6-3.5.7-1,2-2.1,2.3-1.8Z"/>
      <ellipse class="cls-11" cx="502.5" cy="398.2" rx="6.1" ry="6.1"/>
      <ellipse class="cls-11" cx="537.5" cy="398.2" rx="6.1" ry="6.1"/>
      <ellipse class="cls-7" cx="503.9" cy="396.8" rx="3.4" ry="3.2"/>
      <ellipse class="cls-7" cx="535.6" cy="396.8" rx="3.4" ry="3.2"/>
      <ellipse class="cls-19" cx="498.6" cy="410.7" rx="7.6" ry="4.1"/>
      <ellipse class="cls-19" cx="539.9" cy="411.2" rx="7.6" ry="4.1"/>
      <path class="cls-19" d="M519,408.1c-.3,0-.5.1-.8,0-.3-.1-.5-.5-.5-.8,0-.4.4-.7.6-.9.6-.6,1.1-1.3,1.5-2.1.1.5.5.9.8,1.3.3.3.5.7.7,1.1.2.4.3.9,0,1.1-.1,0-.3.1-.4.2-.4.2-.4.7-.4,1.2,0,.5,0,1,0,1.5,0,.2,0,.4-.1.5,0,0-.1.1-.2.2-.4.2-1-.1-1.2-.6s-.2-1-.2-1.5c0-.5,0-1,0-1.5,0,0,0,0,.1.1Z"/>
      <path class="cls-12" d="M515.2,411c.9.7,2.2.8,3.2.3s1.8-2.2,1.3-2.6c-.9.5,1.7,2.6,2.3,2.8.8.4,1.8,0,2.3-.8"/>
      <path class="cls-12" d="M537.6,420.3c-1.2-.5-2.5-.3-3.6.3-2.1,1.1-3.7,3.4-3.9,4.2-.4,1.3-.4,3.6.5,4.5s1.6,1.7,2.3,1.8c2.7.6,1.8,0,5.3-.9,1.6-.4,2.2-.9,3-2.3,0,.1.1.3.2.4"/>
      <path class="cls-12" d="M537.6,420.3c-1.2-.5-2.5-.3-3.6.3-2.1,1.1-3.7,3.4-3.9,4.2-.4,1.3-.4,3.6.5,4.5s1.6,1.7,2.3,1.8c2.7.6,1.8,0,5.3-.9,1.6-.4,2.2-.9,3-2.3,0,.1.1.3.2.4"/>
      <path class="cls-12" d="M501.4,429.7c-.1,1.3,1.2,2.1,2.4,2.6,2,.7,4.4,1.1,6.4.2s3.5-3.2,2.8-5.2c-.2-.8-.7-1.4-1.2-2-.7-.8-1.4-1.6-2.3-2.2-1.1-.7-2.4-1.1-3.6-1.5-.5-.2-1.2-.3-1.5.2"/>
    </g>
  </g>
</svg>